<svg xmlns="http://www.w3.org/2000/svg" width="303" height="304" style="shape-rendering:geometricPrecision;text-rendering:geometricPrecision;image-rendering:optimizeQuality;fill-rule:evenodd;clip-rule:evenodd"><path style="opacity:1" fill="#725a86" d="M-.5-.5h303v304H-.5V-.5Z"/><path style="opacity:1" fill="#fcfbfc" d="M124.5 257.5c-.8.3-1.5.8-2 1.5 23.5.8 46.8.7 70-.5a22 22 0 0 0 15.5-4c1.6-2.5 2.6-5.1 3-8 1.4-10.3 2.6-20.6 3.5-31-5-.7-10-1.2-15-1.5-5.4-2.3-7.4-6.5-6-12.5 7 .3 14 .5 21 .5l2.5-2.5c3.2-11.5 5.2-23.2 6-35-.4-1-1-1.6-2-2a37 37 0 0 1-12.5-3.5c-2.8-3-3.6-6.5-2.5-10.5a8 8 0 0 1 3.5-1 89.1 89.1 0 0 0 17 2c2-14 3.8-28 5.5-42a7 7 0 0 0-3.5-2.5c-6-.2-11.3-2-16-5.5a9.8 9.8 0 0 1 0-8.5c7.7.4 15.3.2 23-.5 1.4-3 1-5.9-1-8.5-5.6-2.1-11.3-4.1-17-6-3-2.8-3.7-6.2-2-10a58 58 0 0 1 27 4c4 4.1 5.7 9.1 5 15a2648.1 2648.1 0 0 1-30 186.5c-38.7.2-77.3 0-116-.5-8.4.4-13.6-3.4-15.5-11.5-16-62.8-29.2-126.1-40-190-.8-4-.7-8 .5-12 17.4-8 35.4-14.2 54-18.5 10.9-3.1 21.9-5.8 33-8a21 21 0 0 1 13.5 1.5c14.4 62.4 27.4 125 39 188 .7 6 .7 12 0 18-6.5 3.5-13.4 6.4-20.5 8.5-13.6 3.7-27.3 7.2-41 10.5Z"/><path style="opacity:1" fill="#fbfbfc" d="M159.5 35.5c15.6.8 30.6 4.2 45 10 1 1.2 2 2.5 2.5 4-3.7 40.8-8.7 81.5-15 122-.7 3.2-1.9 6.2-3.5 9a47 47 0 0 1-3.5-17c-.1-11.4-.8-22.7-2-34a95 95 0 0 0-8.5-13.5c0-1.1.4-2.1 1-3l10-1 1.5-1.5c2.7-10.5 4-21.2 4-32a928 928 0 0 0-23.5-5.5c-3.5-3.4-3.9-7-1-11 9.3.5 18.7.8 28 1 2.3-5.3.7-8.6-5-10-9.1-1.5-18.1-3.5-27-6a9.9 9.9 0 0 1-3-11.5Z"/><path style="opacity:1" fill="#755d88" d="M132.5 43.5c2-.2 4 0 6 .5 2.1 6.6-.2 11-7 13l-74 19.5c-.5-6.5 2.2-11 8-13.5 22.4-6.7 44.7-13.2 67-19.5Z"/><path style="opacity:1" fill="#725a86" d="M134.5 68.5c5.2-1.1 8.4.9 9.5 6 2.5 12 5.1 24 8 36 .7 3.7.7 7.3 0 11-25.4 8-51 15-77 21l-2.5-1a228 228 0 0 1-9-51c7-3.5 14.4-6.4 22-8.5l49-13.5Z"/><path style="opacity:1" fill="#725b86" d="M150.5 134.5c3-.6 5.2.4 6.5 3 3.4 11 5.3 22.4 5.5 34-21.2 6.1-42.6 12-64 17.5-5 1.2-10 1.6-15 1a7 7 0 0 1-2.5-4.5 74 74 0 0 1-2.5-29.5c24-7.5 48-14.7 72-21.5Z"/><path style="opacity:1" fill="#725a86" d="M160.5 184.5c4.7-.8 7.2 1.2 7.5 6 3.8 12.4 5.8 25 6 38a19.6 19.6 0 0 1-9.5 5.5 471.2 471.2 0 0 1-69 16.5c-4.4-14.4-7-29-7.5-44 4.7-2.2 9.5-4 14.5-5.5l58-16.5Z"/><path style="opacity:1" fill="#d9d2de" d="M124.5 257.5c22.5 1 45.2 1.3 68 1a819 819 0 0 1-70 .5c.5-.7 1.2-1.2 2-1.5Z"/></svg>