<?xml version="1.0" encoding="UTF-8" standalone="no"?>
<!-- Uploaded to: SVG Repo, www.svgrepo.com, Generator: SVG Repo Mixer Tools -->

<svg
   height="800px"
   width="800px"
   version="1.1"
   id="Layer_1"
   viewBox="0 0 512 512"
   xml:space="preserve"
   sodipodi:docname="logo.svg"
   inkscape:version="1.2.2 (b0a8486541, 2022-12-01)"
   xmlns:inkscape="http://www.inkscape.org/namespaces/inkscape"
   xmlns:sodipodi="http://sodipodi.sourceforge.net/DTD/sodipodi-0.dtd"
   xmlns="http://www.w3.org/2000/svg"
   xmlns:svg="http://www.w3.org/2000/svg"><defs
   id="defs57"><rect
   x="-346.50329"
   y="98.467656"
   width="33.140217"
   height="32.566719"
   id="rect505" /><rect
   x="-285.62072"
   y="131.03437"
   width="131.14301"
   height="132.53256"
   id="rect499" />
	
	
	
	
	
	
	
	
	
	
	

		
		
		
		
		
		
		
	
		
		
		
	
		
		
	
		
		
	<rect
   x="-346.5033"
   y="98.467659"
   width="33.140217"
   height="32.566719"
   id="rect505-2" /></defs><sodipodi:namedview
   id="namedview55"
   pagecolor="#ffffff"
   bordercolor="#000000"
   borderopacity="0.25"
   inkscape:showpageshadow="2"
   inkscape:pageopacity="0.0"
   inkscape:pagecheckerboard="0"
   inkscape:deskcolor="#d1d1d1"
   showgrid="false"
   inkscape:zoom="0.417193"
   inkscape:cx="378.7216"
   inkscape:cy="509.35658"
   inkscape:window-width="1440"
   inkscape:window-height="831"
   inkscape:window-x="0"
   inkscape:window-y="0"
   inkscape:window-maximized="1"
   inkscape:current-layer="Layer_1" />
<path
   style="fill:#cccccc;stroke-width:2.21154"
   d="M 443.16163,492.47653 H 240.12679 c -25.37963,0 -44.9009,-19.52348 -44.9009,-44.9009 V 68.838368 c 0,-25.379631 19.52348,-44.900894 44.9009,-44.900894 h 201.08205 c 27.33242,0 46.85369,19.523474 46.85369,44.900894 V 445.62284 c 0.002,27.33242 -19.52127,46.85369 -44.9009,46.85369"
   id="path14" /><path
   style="fill:#4d4d4d;stroke-width:2.21154"
   d="M 267.45921,492.47653 H 64.424368 c -25.379631,0 -44.900894,-19.52348 -44.900894,-44.9009 V 68.838368 c 0,-25.379631 19.523474,-44.900894 44.900894,-44.900894 H 265.50642 c 27.33242,0 46.85368,19.523474 46.85368,44.900894 V 445.62284 c 0,27.33242 -19.52126,46.85369 -44.90089,46.85369"
   id="path16" /><path
   style="fill:#000000;stroke-width:2.12379"
   d="M 388.08598,492.47653 H 146.83244 c -23.40561,0 -41.40851,-19.52348 -41.40851,-44.9009 V 68.838368 c 0,-25.379631 18.00494,-44.900894 41.40851,-44.900894 h 239.45468 c 25.2065,0 43.2094,19.523474 43.2094,44.900894 V 445.62284 c 0,27.33242 -18.00494,46.85369 -41.41054,46.85369"
   id="path18" /><path
   style="fill:#b6b6b6;stroke-width:2.22113"
   d="M 447.01539,512 H 64.984606 C 29.537647,512 0,482.717 0,447.57563 V 277.72937 c 0,-11.71453 7.8768544,-19.52348 19.693251,-19.52348 11.816398,0 19.693252,7.80895 19.693252,19.52348 v 169.84626 c 0,13.6651 11.816397,25.37963 25.600334,25.37963 H 445.04785 c 13.78394,0 25.60033,-11.71453 25.60033,-25.37963 V 68.838368 C 472.61796,55.173263 460.80155,43.458737 447.01762,43.458737 H 64.984606 c -13.783937,0 -25.600333,11.714526 -25.600333,25.379631 v 52.709842 c 0,11.71452 -7.876856,19.52347 -19.693252,19.52347 C 7.8746237,141.07168 0,133.26273 0,121.54821 V 68.838368 C 0,33.697 29.537647,4.414 64.984606,4.414 H 445.04562 C 482.46011,4.414 512,33.697 512,68.838368 V 445.62284 C 512,482.717 482.46235,512 447.01539,512 Z"
   id="path36" /><path
   style="fill:#b6b6b6;stroke-width:2.21154"
   d="m 39.044737,199.63989 c 0,11.71453 -7.808948,19.52348 -19.523474,19.52348 C 7.8067358,219.16337 0,211.35221 0,199.63989 c 0,-11.71452 7.8089473,-19.52347 19.523474,-19.52347 11.714527,0 19.521263,7.80895 19.521263,19.52347"
   id="path46" />
<text
   xml:space="preserve"
   transform="scale(0.64)"
   id="text497"
   style="fill:#ff0000;stroke-width:44.91;paint-order:markers fill stroke;-inkscape-font-specification:'Arial Bold';font-family:Arial;text-align:center;stop-color:#000000;font-weight:bold;font-size:16px;stroke-linejoin:round;stroke-linecap:round;white-space:pre;shape-inside:url(#rect499)" /><g
   aria-label="#"
   transform="matrix(25.747802,0,0,25.747802,8757.1424,-2510.3012)"
   id="text503"
   style="font-weight:bold;font-size:16px;font-family:Arial;-inkscape-font-specification:'Arial Bold';text-align:center;white-space:pre;fill:#ff7f2a;stroke-width:44.91;stroke-linecap:round;stroke-linejoin:round;paint-order:markers fill stroke"><path
     d="m -333.17969,110.02731 h -1.0625 v -1.71875 h 1.40625 l 0.46875,-2.30469 h -1.875 v -1.72656 h 2.22657 l 0.61718,-3.04688 h 1.75 l -0.61718,3.04688 h 1.72656 l 0.60156,-3.04688 h 1.8125 l -0.625,3.04688 h 1.07813 v 1.72656 h -1.42969 l -0.46875,2.30469 h 1.89844 v 1.71875 h -2.25 l -0.61719,3.04687 h -1.74219 l 0.60156,-3.04687 h -1.73437 l -0.61719,3.04687 h -1.76562 z m 2.57032,-4.02344 -0.46094,2.30469 h 1.73437 l 0.45313,-2.30469 z"
     id="path325" /></g></svg>
