<?xml version="1.0" encoding="UTF-8" standalone="no"?>
<!-- Uploaded to: SVG Repo, www.svgrepo.com, Generator: SVG Repo Mixer Tools -->

<svg
   height="1198.688"
   width="1198.688"
   version="1.1"
   id="Layer_1"
   viewBox="0 0 767.16031 767.16031"
   xml:space="preserve"
   sodipodi:docname="logo.svg"
   inkscape:version="1.2.2 (b0a8486541, 2022-12-01)"
   xmlns:inkscape="http://www.inkscape.org/namespaces/inkscape"
   xmlns:sodipodi="http://sodipodi.sourceforge.net/DTD/sodipodi-0.dtd"
   xmlns="http://www.w3.org/2000/svg"
   xmlns:svg="http://www.w3.org/2000/svg"><defs
   id="defs57">
	
	
	
	
	
	
	
	
	
	
	

		
		
	
		
		
		
		
		
		
		
	
		
		
		
	
		
		
	</defs><sodipodi:namedview
   id="namedview55"
   pagecolor="#ffffff"
   bordercolor="#000000"
   borderopacity="0.25"
   inkscape:showpageshadow="2"
   inkscape:pageopacity="0.0"
   inkscape:pagecheckerboard="0"
   inkscape:deskcolor="#d1d1d1"
   showgrid="false"
   inkscape:zoom="0.295"
   inkscape:cx="606.77966"
   inkscape:cy="520.33898"
   inkscape:window-width="1440"
   inkscape:window-height="831"
   inkscape:window-x="0"
   inkscape:window-y="0"
   inkscape:window-maximized="1"
   inkscape:current-layer="Layer_1" />
<circle
   style="fill:#a5a29b;fill-opacity:1;stroke:#000000;stroke-width:21.1468;stroke-linecap:round;paint-order:markers fill stroke;stop-color:#000000"
   id="path1029"
   cx="383.58014"
   cy="383.58014"
   r="373.00674" /><path
   style="fill:#cccccc"
   d="m 583.96614,361.51115 h -91.807 c -11.476,0 -20.303,-8.828 -20.303,-20.303 v -171.255 c 0,-11.476 8.828,-20.303 20.303,-20.303 h 90.924 c 12.359,0 21.186,8.828 21.186,20.303 v 170.372 c 0,12.359 -8.827,21.186 -20.303,21.186"
   id="path4" /><path
   style="fill:#ffffff"
   d="m 504.51814,361.51115 h -91.807 c -11.476,0 -20.303,-8.828 -20.303,-20.303 v -171.255 c 0,-11.476 8.828,-20.303 20.303,-20.303 h 90.924 c 12.359,0 21.186,8.828 21.186,20.303 v 170.372 c 0,12.359 -8.828,21.186 -20.303,21.186"
   id="path6" /><path
   style="fill:#b3e884;fill-opacity:1"
   d="m 557.48314,361.51115 h -118.29 c -11.476,0 -20.303,-8.828 -20.303,-20.303 v -171.255 c 0,-11.476 8.828,-20.303 20.303,-20.303 h 117.407 c 12.359,0 21.186,8.828 21.186,20.303 v 170.372 c 0,12.359 -8.827,21.186 -20.303,21.186"
   id="path8" /><path
   style="fill:#cccccc"
   d="m 319.13814,361.51115 h -91.807 c -11.476,0 -20.303,-8.828 -20.303,-20.303 v -171.255 c 0,-11.476 8.828,-20.303 20.303,-20.303 h 90.924 c 12.359,0 21.186,8.828 21.186,20.303 v 170.372 c 10e-4,12.359 -8.827,21.186 -20.303,21.186"
   id="path14" /><path
   style="fill:#285858;fill-opacity:1"
   d="m 239.69014,361.51115 h -91.807 c -11.476,0 -20.303,-8.828 -20.303,-20.303 v -171.255 c 0,-11.476 8.828,-20.303 20.303,-20.303 h 90.924 c 12.359,0 21.186,8.828 21.186,20.303 v 170.372 c 0,12.359 -8.827,21.186 -20.303,21.186"
   id="path16" /><path
   style="fill:#008080"
   d="m 292.65514,361.51115 h -118.289 c -11.476,0 -20.303,-8.828 -20.303,-20.303 v -171.255 c 0,-11.476 8.828,-20.303 20.303,-20.303 h 117.407 c 12.359,0 21.186,8.828 21.186,20.303 v 170.372 c 0,12.359 -8.828,21.186 -20.304,21.186"
   id="path18" /><path
   style="fill:#cccccc"
   d="m 319.13814,626.33915 h -91.807 c -11.476,0 -20.303,-8.828 -20.303,-20.303 v -171.256 c 0,-11.476 8.828,-20.303 20.303,-20.303 h 90.924 c 11.476,0 20.303,8.828 20.303,20.303 v 170.372 c 0.884,12.359 -7.944,21.187 -19.42,21.187"
   id="path24" /><path
   style="fill:#ffffff"
   d="m 239.69014,626.33915 h -91.807 c -11.476,0 -20.303,-8.828 -20.303,-20.303 v -171.256 c 0,-11.476 8.828,-20.303 20.303,-20.303 h 90.924 c 11.476,0 20.303,8.828 20.303,20.303 v 170.372 c 0.883,12.359 -7.944,21.187 -19.42,21.187"
   id="path26" /><path
   style="fill:#285858;fill-opacity:1"
   d="m 238.80714,626.33815 h -91.807 c -11.476,0 -20.303,-8.828 -20.303,-20.303 v -171.255 c 0,-11.476 8.828,-20.303 20.303,-20.303 h 90.924 c 12.359,0 21.186,8.828 21.186,20.303 v 170.372 c 0,12.359 -8.827,21.186 -20.303,21.186"
   id="path16-3" /><path
   style="fill:#008080;stroke-width:1.00006"
   d="M 292.65266,626.33915 H 174.34859 c -11.47746,0 -20.30559,-8.828 -20.30559,-20.303 v -171.256 c 0,-11.476 8.82913,-20.303 20.30559,-20.303 h 117.42196 c 11.47746,0 20.30558,8.828 20.30558,20.303 v 170.372 c 0.88311,12.359 -7.94601,21.187 -19.42347,21.187"
   id="path28" /><path
   style="fill:#808080"
   d="m 507.16614,643.99465 c -5.297,0 -8.828,-3.531 -8.828,-8.828 v -211.861 c 0,-5.297 3.531,-8.828 8.828,-8.828 5.297,0 8.828,3.531 8.828,8.828 v 211.862 c -10e-4,5.296 -3.532,8.827 -8.828,8.827 z"
   id="path30" /><path
   style="fill:#999999"
   d="m 613.09714,538.06315 h -211.862 c -5.297,0 -8.828,-3.531 -8.828,-8.828 0,-5.297 3.531,-8.828 8.828,-8.828 h 211.862 c 5.297,0 8.828,3.531 8.828,8.828 0,5.297 -3.532,8.828 -8.828,8.828 z"
   id="path32" /><path
   style="fill:#00ffff"
   d="m 319.13814,370.33915 h -171.255 c -15.89,0 -29.131,-13.241 -29.131,-29.131 v -76.8 c 0,-5.297 3.531,-8.828 8.828,-8.828 5.297,0 8.828,3.531 8.828,8.828 v 76.8 c 0,6.179 5.297,11.476 11.476,11.476 h 170.372 c 6.179,0 11.476,-5.297 11.476,-11.476 v -171.255 c 0.883,-6.179 -4.414,-11.476 -10.593,-11.476 h -171.256 c -6.179,0 -11.476,5.297 -11.476,11.476 v 23.834 c 0,5.297 -3.531,8.828 -8.828,8.828 -5.297,0 -8.827,-3.531 -8.827,-8.828 v -23.834 c 0,-15.89 13.241,-29.131 29.131,-29.131 h 170.372 c 16.772,0 30.014,13.241 30.014,29.131 v 170.372 c 0,16.773 -13.241,30.014 -29.131,30.014 z"
   id="path36" /><path
   style="fill:#6eaf34;fill-opacity:1;stroke-width:0.40825"
   d="m 422.56877,361.51115 h -19.71526 c -1.91268,0 -3.38387,-8.828 -3.38387,-20.303 V 169.95314 c 0,-11.476 1.47135,-20.303 3.38387,-20.303 h 19.56808 c 2.05986,0 3.53105,8.828 3.53105,20.303 v 170.37201 c 0,12.359 -1.47119,21.186 -3.38387,21.186"
   id="path8-6" /><path
   style="fill:#00ff00"
   d="m 583.96614,370.33915 h -171.255 c -15.89,0 -29.131,-13.241 -29.131,-29.131 v -171.255 c 0,-15.89 13.241,-29.131 29.131,-29.131 h 170.372 c 16.772,0 30.014,13.241 30.014,29.131 v 76.8 c 0,5.297 -3.531,8.828 -8.828,8.828 -5.297,0 -8.828,-3.531 -8.828,-8.828 v -76.8 c 0,-6.179 -5.297,-11.476 -11.476,-11.476 h -171.254 c -6.179,0 -11.476,5.297 -11.476,11.476 v 170.372 c 0,6.179 5.297,11.476 11.476,11.476 h 170.372 c 6.179,0 11.476,-5.297 11.476,-11.476 v -22.952 c 0,-5.297 3.531,-8.828 8.828,-8.828 5.297,0 8.828,3.531 8.828,8.828 v 23.835 c 0.882,15.89 -12.36,29.131 -28.249,29.131 z"
   id="path38" /><path
   style="fill:#00ffff"
   d="m 319.13814,635.16715 h -171.255 c -15.89,0 -29.131,-13.242 -29.131,-29.131 v -171.256 c 0,-15.89 13.241,-29.131 29.131,-29.131 h 170.372 c 15.89,0 29.131,13.241 29.131,29.131 v 170.372 c 0.883,16.773 -12.358,30.015 -28.248,30.015 z m -171.255,-211.862 c -6.179,0 -11.476,5.297 -11.476,11.476 v 170.372 c 0,7.062 5.297,12.359 11.476,12.359 h 170.372 c 6.179,0 11.476,-5.297 11.476,-11.476 v -171.256 c 0,-6.179 -5.297,-11.476 -11.476,-11.476 h -170.372 z"
   id="path40" /><path
   style="fill:#000000"
   d="m 498.33814,635.16715 c -5.297,0 -8.828,-3.531 -8.828,-8.828 v -211.862 c 0,-5.297 3.531,-8.828 8.828,-8.828 5.297,0 8.828,3.531 8.828,8.828 v 211.862 c 0,5.297 -3.531,8.828 -8.828,8.828 z"
   id="path42" /><path
   style="fill:#000000"
   d="m 604.26914,529.23615 h -211.862 c -5.297,0 -8.828,-3.531 -8.828,-8.828 0,-5.297 3.531,-8.828 8.828,-8.828 h 211.862 c 5.297,0 8.828,3.531 8.828,8.828 0,5.297 -3.531,8.828 -8.828,8.828 z"
   id="path44" /><path
   style="fill:#b6b6b6"
   d="m 136.40714,229.09815 c 0,5.297 -3.531,8.828 -8.828,8.828 -5.297,0 -8.827,-3.532 -8.827,-8.828 0,-5.297 3.531,-8.828 8.828,-8.828 5.297,0 8.827,3.531 8.827,8.828"
   id="path46" /><path
   style="fill:#b6b6b6"
   d="m 613.09714,282.06315 c 0,5.297 -3.531,8.828 -8.828,8.828 -5.297,0 -8.828,-3.531 -8.828,-8.828 0,-5.297 3.531,-8.828 8.828,-8.828 5.297,0 8.828,3.532 8.828,8.828"
   id="path48" />
</svg>
