<svg xmlns="http://www.w3.org/2000/svg" width="200" height="200" viewBox="0 0 150 150" preserveAspectRatio="xMidYMid meet" xmlns:v="https://vecta.io/nano"><defs><linearGradient id="A" x1="812" y1="649" x2="801.101" y2="3042.898" gradientUnits="userSpaceOnUse"><stop offset="0" stop-color="#55396e"/><stop offset="1" stop-color="#55396e" stop-opacity="0"/></linearGradient></defs><g transform="matrix(.1 0 0 -.1 0 150)" fill="url(#A)"><path d="M105 1486c-39-17-70-52-90-98-13-32-15-119-15-646V133l23-43c16-30 37-51 67-67l43-23h617 617l43 23c30 16 51 37 67 67l23 43v614c0 499-3 620-14 646-16 39-61 82-99 96-45 17-1243 14-1282-3zm650-355c3-6 35-153 71-327 55-264 64-319 52-330-7-7-56-24-108-38l-95-25h136c153-1 143-6 154 82l7 56-33 3c-26 2-35 8-37 25-3 19 0 21 36 16 44-6 40-11 58 89 6 34 4 37-23 40-20 2-29 9-31 25-3 20 0 21 31 16l34-5 7 48c4 27 10 59 13 71 4 18 0 23-31 28-27 6-36 12-36 27 0 18 4 20 40 14 35-5 40-4 40 13 0 15-9 22-35 27s-35 11-35 26c0 19 4 20 43 14 77-13 76-2 28-308l-52-310-10-38H780c-196 0-200 0-214 22-21 34-147 639-136 657 5 9 64 31 142 53 141 39 173 44 183 29zm186-42c6-8 8-30 5-49s-15-115-27-213c-16-125-26-174-33-167-6 6-11 46-11 88 0 60-4 81-17 95-24 23-22 37 4 34 20-2 23 4 30 52 5 30 6 56 4 58-2 3-23 7-45 10-32 4-41 10-41 26 0 18 4 19 50 13 45-6 50-5 50 12 0 15-11 21-57 28-48 7-59 13-61 30-3 21-2 21 69 9 39-7 75-19 80-26z"/><path d="M595 1066c-102-28-120-35-123-54l-3-21 93 25 131 35c27 7 37 15 37 29 0 24 10 25-135-14z"/><path d="M600 986c-63-17-115-35-115-41 0-27 29-165 34-165 6 0 227 58 248 65 11 4 10 15-22 153-6 27-3 27-145-12z"/><path d="M656 775c-65-19-120-36-123-38-6-7 7-90 16-105 5-9 41-2 129 22 68 18 124 35 126 37 6 6-17 119-23 118-3 0-59-16-125-34z"/><path d="M687 616c-64-18-120-35-122-38-5-5 19-136 27-143 2-2 59 11 128 29 118 32 125 35 122 57-5 51-24 129-30 128-4 0-60-15-125-33z"/></g></svg>