<svg xmlns="http://www.w3.org/2000/svg" fill-rule="evenodd" image-rendering="optimizeQuality" shape-rendering="geometricPrecision" viewBox="0 0 1380 424"><style>.B{fill:#a2a9b6}.C{fill:#a1a7b4}.D{fill:#23262c}.E{fill:#a0a7b3}.F{fill:#a2a8b5}.G{fill:#a1a8b4}.H{fill:#22242b}.I{fill:#9da4b0}.J{fill:#9fa6b2}.K{fill:#aab1be}.L{fill:#a5acb8}.M{fill:#202329}.N{fill:#e29c5b}.O{fill:#e19b5b}.P{fill:#9fa5b2}.Q{fill:#24262c}.R{fill:#e59e5c}.S{fill:#282629}.T{fill:#9ea5b1}.U{fill:#a3aab7}.V{fill:#a1a8b5}.W{fill:#21242a}.X{fill:#608ebd}.Y{fill:#202229}</style><path fill="#1f2127" d="M0 0h1380v424H0V0Z"/><path fill="#d99659" d="M623 33c5-1 7 1 5 7-4 1-7 0-7-4l2-3z"/><path fill="#8e6745" d="m680 45-1 1c-1-4-2-8-1-12h-5v34h5c-1-6 0-11 1-16v17h-7V33h7c-1 4 0 8 1 12Z"/><path fill="#e9a05d" d="M680 45c3-3 7-3 11-1l3 5v19h-5l-1-17c-1-2-2-3-4-2-2 0-4 1-5 3-1 5-2 10-1 16h-5V34h5c-1 4 0 8 1 12l1-1Z"/><path d="M808 33h6v36l-6-2c-8 3-13 2-17-5-3-9 0-15 8-19 2-1 5 0 8 2l1-12z" class="N"/><path fill="#e89f5c" d="m236 42-1 10h-4l-1-11v-6h6v7z"/><path d="M858 35c5-1 9 0 13 4 1 6-1 10-6 14v4h-5v-6l7-8-2-3c-4-1-7 0-10 1l-2-2 5-4z" class="R"/><path d="M52 36v9h5v-9h4v9h3v4h-4v5l3 1v4h-4l-1 10h-4V59h-4l-1 10h-4V59h-3v-5h5v-5h-4v-4h5v-9h4Zm30 0v9h5v-9h4v9h3v4h-4v5l3 1v4h-4l-1 10h-4V59h-4l-1 10h-4V59h-3v-5h5v-5h-4v-4h5v-9h4Zm30 0v9h5v-9h4v9h3v4h-4v5l3 1v4h-4l-1 10h-4V59h-4l-1 10h-4V59h-3v-5h5v-5h-4v-4h5v-9h4Z" class="O"/><path fill="#de995a" d="M169 35c13 0 19 8 16 22-1 5-4 9-8 12l9 2c0 5-3 7-8 5l-4-2-12-12c-5-11-3-20 7-27z"/><path fill="#9c7049" d="M236 42v-7h-6v6c-1-3-2-5-1-7h8l-1 8z"/><path fill="#eca25d" d="M585 36h5v27l15 1v4h-20V36Z"/><path d="M733 36c6-1 13 0 20 2 4 6 3 11-1 16l-13 3c-1 3-2 7-1 11h-5V36Z" class="R"/><path d="M318 37h6v7h11v5h-11v13l5 2 6-1-2 5c-5 1-9 1-12-1l-3-3V49h-7v-5h7v-7Zm390 0h6v7h11v5h-11v13l5 2 6-1-2 5c-5 1-9 1-12-1l-3-3V49h-7v-5h7v-7Z" class="O"/><path fill="#242428" d="M170 41c3-1 6 0 8 4v14c-4 6-8 6-11-1V45l3-4Z"/><path fill="#292729" d="M739 41c3-1 7 0 10 2 1 3 0 5-2 7l-8 1V41Z"/><path fill="#5a4637" d="m61 36 1 8h3l-1 5v-4h-3v-9zm30 0 1 8h3l-1 5v-4h-3v-9zm30 0 1 8h3l-1 5v-4h-3v-9z"/><path fill="#5c4837" d="M649 44c5-1 11-2 18-1l-1 6v-5h-17z"/><path fill="#564436" d="m52 36 1 8h3c-1-2 0-3 1-3v4h-5v-9zm30 0 1 8h3c-1-2 0-3 1-3v4h-5v-9zm30 0 1 8h3c-1-2 0-3 1-3v4h-5v-9z"/><use fill="#e69e5c" href="#B"/><path fill="#b58050" d="m213 44 1 25-7-2 1-1 5 2V44Z"/><use class="N" href="#C"/><path d="M289 43c4-1 9 0 13 3v3l-9-1c-3-1-4 0-4 2l15 9c0 7-4 10-12 10-4 0-7-1-10-3 0-6 2-7 6-3h10c1-2 0-3-2-4-6 0-10-3-13-6v-6l6-4z" class="O"/><path d="M381 43c5-1 10 0 14 4-2 1-3 2-3 4-10-5-15-2-14 9 4 4 9 5 14 1 4 4 3 6-3 7-14 1-19-4-17-17 2-4 5-7 9-8zm29 0c10-1 15 4 15 15h-17c-1 2 1 4 4 5s6 0 10-1c2 1 2 3 0 5-10 4-17 1-21-8-1-8 2-13 9-16z" class="N"/><path fill="#e39d5b" d="M469 43c3-1 6 0 9 2 1-1 3-2 6-1v34h-6l-1-11c-7 3-12 2-16-5V50c2-3 5-6 8-7Z"/><use x="300" fill="#e69e5c" href="#B"/><path fill="#b58050" d="m513 44 1 25-7-2 1-1 5 2V44Z"/><use x="270" class="N" href="#C"/><path d="M612 44h17v25h-6V49h-11v-5Zm37 0h17v5h-4c0 9-5 14-14 13l1 1 15 2c3 2 3 5 1 9-6 5-13 6-20 3-5-3-6-6-1-10-2-4-2-6 1-9-2-3-3-7-2-10 1-2 3-4 6-4Z" class="R"/><path d="M769 43c5-1 10 1 14 5l1 21-6-2c-11 5-16 2-16-9 4-5 9-7 16-5l-1-4c-5-1-8 0-12 2-2-2-3-3-1-5l5-3z" class="O"/><path fill="#272629" d="m269 51-11 2c0-2 0-3 2-4h8l1 2zm150 0-11 2c0-2 0-3 2-4h8l1 2z"/><use class="S" href="#D"/><path fill="#272629" d="m539 51-11 2c0-2 0-3 2-4h8l1 2z"/><path fill="#312c2c" d="M650 48c5-1 7 1 6 7-4 2-6 2-8-1 0-3 0-5 2-6z"/><use x="330" class="S" href="#D"/><path fill="#3b322e" d="M51 49h5c1 4-1 6-5 6v-6zm30 0h5c1 4-1 6-5 6v-6zm30 0h5c1 4-1 6-5 6v-6z"/><path fill="#e09a5a" d="M342 50h22v5h-22v-5z"/><path fill="#7a5b40" d="m269 51 1 3-12-1 11-2zm150 0 1 3-12-1 11-2zm120 0 1 3-12-1 11-2z"/><path fill="#7f5d41" d="m694 49 1 20h-7V51l1 17h5V49Z"/><path fill="#7f5e41" d="M60 54h4l-1 5v-4l-3-1zm30 0h4l-1 5v-4l-3-1zm30 0h4l-1 5v-4l-3-1z"/><path fill="#8f6846" d="M733 36v32h5c-1-4 0-8 1-11v12h-7c-1-12 0-23 1-33z"/><path d="M772 57h6c-1 5-4 7-9 6l-1-2c0-2 2-4 4-4z" class="S"/><path fill="#df9a5a" d="M860 60c6-1 8 2 5 8-8 0-9-2-5-8z"/><path fill="#a7774c" d="M585 36v32h20v-4l-15-1h16v6h-22c-1-12 0-23 1-33z"/><path fill="#2f2b2b" d="M648 69h12c0 3-1 5-4 5h-7c-3-2-3-3-1-5z"/><use class="C" href="#E"/><use class="T" href="#F"/><use class="I" href="#G"/><use class="F" href="#H"/><path d="M683 153c4-1 6 1 5 6-6 1-8-1-5-6zm120 0c4-1 6 1 5 6-6 1-8-1-5-6z" class="C"/><use x="270" class="F" href="#H"/><use x="870" class="C" href="#E"/><path d="M973 153h5v13l2-2c11-2 16 3 14 16-3 8-9 10-17 6l-4 2v-35z" class="F"/><path d="M45 156h5v28h15v4H45v-32Z" class="B"/><path d="M169 157h4v7h11v4h-11v14l5 3 7-1c0 2-1 3-3 4-6 1-11 0-14-5v-15h-6v-4h7v-7zm210 0h4v7h11v4h-11v14l5 3 7-1c0 2-1 3-3 4-6 1-11 0-14-5v-15h-6v-4h7v-7zm390 0h4v7h11v4h-11v14l5 3 7-1c0 2-1 3-3 4-6 1-11 0-14-5v-15h-6v-4h7v-7zm360 0h4v7h11v4h-11v14l5 3 7-1c0 2-1 3-3 4-6 1-11 0-14-5v-15h-6v-4h7v-7z" class="U"/><use fill="#a0a6b3" href="#I"/><use class="F" href="#J"/><use class="C" href="#K"/><use class="B" href="#L"/><use class="E" href="#M"/><use class="P" href="#N"/><use x="180" class="B" href="#L"/><use x="330" class="C" href="#K"/><path d="M583 164c1-1 3 0 5 2 3-3 7-3 12-2 5 5 6 11 3 19-4 5-8 7-14 4-1 3-2 7-1 11h-5v-34zm30 0c1-1 3 0 5 2 3-3 7-3 12-2 5 5 6 11 3 19-4 5-8 7-14 4-1 3-2 7-1 11h-5v-34z" class="F"/><use class="J" href="#O"/><use x="510" class="C" href="#K"/><use class="V" href="#P"/><use x="390" class="P" href="#N"/><use class="G" href="#Q"/><path d="M1039 164c10-3 16 2 16 13h-18c-1 3 1 5 4 6h10c3 1 3 3 0 4-14 3-20-3-19-16 2-3 4-6 7-7zm60 0c10-3 16 2 16 13h-18c-1 3 1 5 4 6h10c3 1 3 3 0 4-14 3-20-3-19-16 2-3 4-6 7-7z" class="B"/><path d="M73 164h15v24h-4v-20H73v-4Z" class="K"/><use class="L" href="#R"/><path d="M673 164h15v24h-4v-20h-11v-4zm120 0h15v24h-4v-20h-11v-4zm150 0h15v24h-4v-20h-11v-4z" class="K"/><use fill="#23252b" href="#S"/><use class="M" href="#T"/><use class="H" href="#U"/><path d="M320 168h8l2 6h-13c0-3 1-5 3-6zm180 0h8l2 6h-13c0-3 1-5 3-6z" class="D"/><use class="M" href="#V"/><use class="W" href="#W"/><use x="780" fill="#212329" href="#T"/><use class="D" href="#X"/><path d="M234 176h5c-1 7-4 9-11 7-2-2-2-4 1-5l5-2zm330 0h5c-1 7-4 9-11 7-2-2-2-4 1-5l5-2zm180 0h5c-1 7-4 9-11 7-2-2-2-4 1-5l5-2z" class="Q"/><use fill="#22242a" href="#Y"/><path d="M954 213h6l-6 7-3 1c0-3 1-6 3-8z" class="T"/><path d="M203 213c4-1 6 1 5 6-6 1-8-1-5-6zm180 0c4-1 6 1 5 6-6 1-8-1-5-6z" class="C"/><path d="M809 213h5v35l-6-2c-8 4-14 2-17-6-2-10 2-15 11-17l6 3 1-13zm270 0h5v35l-6-2c-8 4-14 2-17-6-2-10 2-15 11-17l6 3 1-13zm210 0h5v35l-6-2c-8 4-14 2-17-6-2-10 2-15 11-17l6 3 1-13z" class="I"/><use class="G" href="#Z"/><use x="11" fill="#9fa6b3" href="#Z"/><use x="150" class="G" href="#Z"/><use x="161" fill="#9fa6b3" href="#Z"/><path d="M139 217h4v7h11v4h-11v14l5 3 7-1c0 2-1 3-3 4-6 1-11 0-14-5v-15h-6v-4h7v-7zm90 0h4v7h11v4h-11v14l5 3 7-1c0 2-1 3-3 4-6 1-11 0-14-5v-15h-6v-4h7v-7zm510 0h4v7h11v4h-11v14l5 3 7-1c0 2-1 3-3 4-6 1-11 0-14-5v-15h-6v-4h7v-7z" class="U"/><use x="-60" y="60" fill="#a0a6b3" href="#I"/><use x="-930" y="60" class="G" href="#Q"/><use x="-120" y="60" class="C" href="#K"/><use x="-60" y="60" class="B" href="#L"/><path d="M320 223c3-1 6 0 8 3 1-2 3-3 6-2v34h-5l-1-12c-8 4-14 2-17-6-1-8 1-14 9-17z" class="I"/><use x="-360" y="60" class="V" href="#P"/><use x="180" y="60" class="E" href="#M"/><use x="390" y="60" class="F" href="#J"/><use x="300" y="60" class="B" href="#L"/><use x="-360" y="60" class="G" href="#Q"/><use class="E" href="#a"/><use class="B" href="#b"/><use x="180" y="60" class="J" href="#O"/><use x="-90" y="60" class="G" href="#Q"/><path d="M949 224c10-3 16 2 16 13h-18c-1 3 1 5 4 6h10c3 1 3 3 0 4-14 3-20-3-19-16 2-3 4-6 7-7zm30 0c10-3 16 2 16 13h-18c-1 3 1 5 4 6h10c3 1 3 3 0 4-14 3-20-3-19-16 2-3 4-6 7-7z" class="B"/><use y="60" class="G" href="#Q"/><use x="780" y="60" class="B" href="#L"/><use x="780" y="60" class="E" href="#M"/><use x="1020" y="60" class="F" href="#J"/><use x="1020" y="60" class="C" href="#K"/><use x="960" y="60" class="E" href="#M"/><use x="-270" y="60" class="L" href="#R"/><use class="K" href="#c"/><use x="-90" y="60" class="L" href="#R"/><use x="180" class="K" href="#c"/><use fill="#a4abb7" href="#d"/><use x="60" y="60" class="L" href="#R"/><use x="-60" y="60" fill="#23252b" href="#S"/><use class="D" href="#e"/><use x="60" y="60" class="H" href="#U"/><use x="-360" y="60" class="W" href="#W"/><use x="390" y="60" class="M" href="#T"/><use class="D" href="#f"/><use x="540" y="60" class="H" href="#U"/><path d="M830 228h8l2 6h-13c0-3 1-5 3-6zm120 0h8l2 6h-13c0-3 1-5 3-6zm30 0h8l2 6h-13c0-3 1-5 3-6z" class="D"/><use x="810" y="60" class="H" href="#U"/><use x="840" class="D" href="#e"/><use x="1020" y="60" class="M" href="#T"/><use x="1020" y="60" class="H" href="#U"/><path d="M114 236h5c-1 7-4 9-11 7-2-2-2-4 1-5l5-2zm1140 0h5c-1 7-4 9-11 7-2-2-2-4 1-5l5-2z" class="Q"/><use x="-60" y="60" fill="#22242a" href="#Y"/><path fill="#a0a7b4" d="M1098 274c1-2 3-2 5-1l4 7h-4l-5-6z"/><use x="-60" y="120" class="I" href="#G"/><use x="-270" y="120" class="F" href="#H"/><use x="420" y="120" class="I" href="#G"/><path d="M942 273h13v29l9 2v3c-6 3-11 2-14-3v-27h-8v-4zm210 0h13v29l9 2v3c-6 3-11 2-14-3v-27h-8v-4z" class="F"/><path d="M619 277h4v7h11v4h-11v14l5 3 7-1c0 2-1 3-3 4-6 1-11 0-14-5v-15h-6v-4h7v-7z" class="U"/><use x="-180" y="120" class="C" href="#K"/><use x="-210" y="120" class="B" href="#L"/><use x="-570" y="120" class="J" href="#O"/><use x="-90" y="120" class="B" href="#L"/><use x="-90" y="120" class="E" href="#M"/><use x="-390" y="120" class="J" href="#O"/><path d="M350 283c12 1 17 7 13 20-9 8-16 7-22-3-1-8 2-14 9-17zm60 0c12 1 17 7 13 20-9 8-16 7-22-3-1-8 2-14 9-17z" class="V"/><path d="M443 283c4-1 7 1 10 5l1 20h-5l-1-18c-4-3-7-3-10 1v17h-5v-24h4v3l6-4zm30 0c4-1 7 1 10 5l1 20h-5l-1-18c-4-3-7-3-10 1v17h-5v-24h4v3l6-4z" class="P"/><use x="180" y="120" class="B" href="#L"/><use x="180" y="120" class="E" href="#M"/><use x="-120" y="60" class="B" href="#b"/><use x="390" y="120" class="E" href="#M"/><use x="90" y="120" class="J" href="#O"/><use x="600" y="120" class="C" href="#K"/><use x="660" y="120" class="F" href="#J"/><use x="540" y="120" class="E" href="#M"/><use x="660" y="120" class="B" href="#L"/><use x="660" y="120" class="E" href="#M"/><path d="M1101 283c5-1 9 1 12 6l1 19-5-2c-6 3-11 3-16 0-2-5-2-8 3-11 4-2 8-3 13-3l-2-4c-5-1-8 0-12 2-2-1-2-3-1-4l7-3zm90 0c5-1 9 1 12 6l1 19-5-2c-6 3-11 3-16 0-2-5-2-8 3-11 4-2 8-3 13-3l-2-4c-5-1-8 0-12 2-2-1-2-3-1-4l7-3z" class="C"/><use x="-360" y="60" fill="#a4abb7" href="#d"/><use x="480" y="120" class="L" href="#R"/><use x="-150" y="60" class="D" href="#e"/><use x="-60" y="120" class="H" href="#U"/><use x="-30" y="60" class="D" href="#e"/><path d="M350 288c8-1 11 3 9 12-2 3-5 4-9 3-6-5-6-10 0-15zm60 0c8-1 11 3 9 12-2 3-5 4-9 3-6-5-6-10 0-15z" class="W"/><use x="-120" y="60" class="D" href="#f"/><use x="420" y="120" class="H" href="#U"/><use x="450" y="60" class="D" href="#e"/><use x="660" y="120" class="M" href="#T"/><use x="720" y="60" class="D" href="#e"/><path d="M54 296h5c-1 7-4 9-11 7-2-2-2-4 1-5l5-2zm780 0h5c-1 7-4 9-11 7-2-2-2-4 1-5l5-2zm270 0h5c-1 7-4 9-11 7-2-2-2-4 1-5l5-2zm90 0h5c-1 7-4 9-11 7-2-2-2-4 1-5l5-2z" class="Q"/><path fill="#a3a9b6" d="M1041 300c5-1 7 1 7 7-1 5-3 8-8 11l-2-2 5-7c-5-3-5-6-2-9z"/><path d="M168 334c5-2 8 1 9 7l-4-1-5-6z" class="T"/><path fill="#6190c0" d="m659 332 3 2c-12 13-12 26 0 40l-3 2c-7-6-11-13-11-22s4-17 11-22zm587 0c12 9 15 21 8 36l-8 8-2-2c8-9 11-19 7-30l-7-10 2-2z"/><use x="60" y="180" class="C" href="#E"/><use x="30" y="180" class="I" href="#G"/><path fill="#91ba74" d="M379 333h14v3h-10v36h10v3h-14v-42z"/><use fill="#8fb873" href="#g"/><use x="330" y="180" fill="#8cb371" href="#G"/><path fill="#90b974" d="M613 333h14v42h-14v-3h10v-36h-10v-3z"/><use x="540" y="180" class="X" href="#F"/><path fill="#6291c1" d="M869 333h4c-6 14-11 28-15 43l-5-1 16-42zm30 0h4c-6 14-11 28-15 43l-5-1 16-42z"/><use class="X" href="#h"/><use x="510" fill="#6190c0" href="#g"/><use x="180" class="X" href="#h"/><path fill="#91b974" d="M402 336c18-3 25 5 22 23-2 4-5 7-9 8l-13 1v-32z"/><path fill="#6292c2" d="M709 337h4v7h11v4h-11v14l2 1 10 1-1 3c-7 3-12 1-16-4v-15h-6v-4h7v-7zm30 0h4v7h11v4h-11v14l2 1 10 1-1 3c-7 3-12 1-16-4v-15h-6v-4h7v-7z"/><path fill="#212328" d="M407 340c8-1 13 3 13 12 0 8-5 12-13 12v-24z"/><path fill="#6494c5" d="M830 343c6-2 8 1 6 7-7 2-9-1-6-7z"/><use x="-630" y="120" class="E" href="#a"/><use x="-150" y="180" class="C" href="#K"/><use x="-360" y="180" class="P" href="#N"/><use x="-150" y="180" class="B" href="#L"/><use x="-810" y="180" class="G" href="#Q"/><path d="M229 344c10-3 16 2 16 13h-18c-1 3 1 5 4 6h10c3 1 3 3 0 4-14 3-20-3-19-16 2-3 4-6 7-7zm90 0c10-3 16 2 16 13h-18c-1 3 1 5 4 6h10c3 1 3 3 0 4-14 3-20-3-19-16 2-3 4-6 7-7z" class="B"/><path fill="#8db572" d="m471 343 15 1v4h-5c2 7-1 11-8 13-4-3-6-2-5 3h13c4 1 6 5 4 10-5 4-11 5-17 4-7-3-8-7-3-12-3-3-3-6 1-8-6-7-4-13 5-15z"/><use x="330" y="180" fill="#90b873" href="#J"/><path fill="#8fb773" d="M561 343c5-1 9 1 12 6l1 19-5-2c-6 3-11 3-16 0-2-4-2-8 2-10 4-3 9-4 14-4l-2-4c-5-1-8 0-12 2-2-1-2-3-1-4l7-3z"/><path fill="#6290c0" d="M773 343c5-1 9 1 11 7 2 8 0 14-7 18-3 1-6 0-8-1-1 3-2 7-1 11h-5v-34c1-1 3 0 5 2 1-2 3-3 5-3z"/><path fill="#618fbf" d="M800 343c4-1 9 1 13 4l-3 3c-4-4-9-4-12 0l15 8c1 4 0 7-3 9-7 3-13 1-18-3 0-2 1-2 2-2l9 3 5-2v-4l-13-5c-2-2-3-4-2-6 2-3 4-4 7-5z"/><use x="750" y="120" fill="#6698cb" href="#c"/><path fill="#618fbf" d="M978 344h18v4h-5c2 7-1 11-8 13-4-3-6-2-5 3h13c4 1 6 5 4 10-5 4-11 5-17 4-7-3-8-7-3-12-3-3-3-6 1-8-5-6-4-10 2-14z"/><use x="810" y="120" fill="#6698cb" href="#c"/><path fill="#6290c0" d="M1043 343c5-1 9 1 11 7 2 8 0 14-7 18-3 1-6 0-8-1-1 3-2 7-1 11h-5v-34c1-1 3 0 5 2 1-2 3-3 5-3zm28 0c5-1 9 1 12 6l1 19-5-2c-6 3-11 3-16 0-2-5-2-8 3-11 4-2 8-3 13-3l-2-4c-5-1-8 0-12 2-2-1-2-3-1-4l7-3zm90 0c5-1 9 1 12 6l1 19-5-2c-6 3-11 3-16 0-2-5-2-8 3-11 4-2 8-3 13-3l-2-4c-5-1-8 0-12 2-2-1-2-3-1-4l7-3zm32 0c5-1 9 1 11 7 2 8 0 14-7 18-3 1-6 0-8-1-1 3-2 7-1 11h-5v-34c1-1 3 0 5 2 1-2 3-3 5-3zm30 0c5-1 9 1 11 7 2 8 0 14-7 18-3 1-6 0-8-1-1 3-2 7-1 11h-5v-34c1-1 3 0 5 2 1-2 3-3 5-3z"/><use x="-60" y="120" class="K" href="#c"/><path fill="#97c278" d="M433 344h15v24h-4v-20h-11v-4zm60 0h15v24h-4v-20h-11v-4z"/><use x="-870" y="180" class="D" href="#X"/><use x="30" y="180" class="H" href="#U"/><use x="60" y="120" class="D" href="#e"/><use x="360" y="180" fill="#222529" href="#S"/><use x="330" y="180" fill="#202328" href="#T"/><use x="330" y="180" fill="#222529" href="#U"/><use x="570" y="180" class="Y" href="#T"/><use x="660" y="180" fill="#20242b" href="#U"/><path fill="#22262e" d="M981 347c4-1 6 2 6 7-3 3-6 3-9 1-1-4 0-6 3-8z"/><use x="840" y="180" class="Y" href="#T"/><use x="840" y="180" fill="#20242b" href="#U"/><use x="600" y="180" class="Y" href="#V"/><path d="M84 356h5c-1 7-4 9-11 7-2-2-2-4 1-5l5-2z" class="Q"/><path fill="#23262a" d="M565 356h4c-1 7-4 9-11 7-2-2-2-4 1-5l6-2z"/><path fill="#21252d" d="M1074 356h5c-1 7-4 9-11 7-2-2-2-4 1-5l5-2zm90 0h5c-1 7-4 9-11 7-2-2-2-4 1-5l5-2z"/><path fill="#6292c2" d="M831 360c5-1 7 1 5 7-6 3-8 1-7-5l2-2zm300 0c5-1 7 1 5 7-6 3-8 1-7-5l2-2z"/><path fill="#a3aab6" d="M1281 360c5-1 7 1 5 7-6 3-8 1-7-5l2-2z"/><use x="360" y="180" fill="#212428" href="#Y"/><use x="870" y="180" fill="#20232a" href="#Y"/><defs><path id="B" d="M213 44v24l-5-2-1 1c-5 2-10 2-14-1-1-8-2-15-1-22h6v18c3 2 6 2 9-1l1-17h5z"/><path id="C" d="M260 43c10-1 15 4 15 15h-17c-1 2 1 4 4 5s6 0 10-1c2 1 2 3 0 5-10 4-17 1-21-8-1-8 2-13 9-16z"/><path id="D" d="M470 49c5-2 8 0 8 7 0 4-2 7-6 8-3-1-4-2-5-4-1-5 0-8 3-11z"/><path id="E" d="M83 153c4-1 6 1 5 6-6 1-8-1-5-6z"/><path id="F" d="M133 153h5c-1 4 0 8 1 13 5-5 10-4 14 2l1 20h-5l-1-18c-4-3-7-3-10 1v17h-5v-35z"/><path id="G" d="M269 153h5v35l-6-2c-8 4-14 2-17-6-2-10 2-15 11-17l6 3 1-13z"/><path id="H" d="M642 153h13v29l9 2v3c-6 3-11 2-14-3v-27h-8v-4z"/><path id="I" d="M108 164h18v4h-5c2 7-1 11-9 13-3-2-5-1-4 3h13c5 2 6 5 3 11-5 3-10 4-16 3-7-3-8-7-3-12-3-3-3-6 1-8-5-6-4-10 2-14z"/><path id="J" d="M193 164c1-1 3 0 5 2 3-3 7-3 12-2 5 5 6 11 3 19-4 5-8 7-14 4-1 3-2 7-1 11h-5v-34z"/><path id="K" d="M231 163c5-1 9 1 12 6l1 19-5-2c-6 3-11 3-16 0-2-5-2-8 3-11 4-2 8-3 13-3l-2-4c-5-1-8 0-12 2-2-1-2-3-1-4l7-3z"/><path id="L" d="M319 164c10-3 16 2 16 13h-18c-1 3 1 5 4 6h10c3 1 3 3 0 4-14 3-20-3-19-16 2-3 4-6 7-7z"/><path id="M" d="M350 163c4-1 9 1 13 4l-3 3c-4-4-9-4-12 0l2 2c4 1 9 3 13 6 1 4 0 7-3 9-7 3-13 2-18-3 0-2 1-2 2-2l9 3c4 0 6-2 5-6l-13-5c-2-2-3-4-2-6 2-3 4-4 7-5z"/><path id="N" d="M473 163c4-1 7 1 10 5l1 20h-5l-1-18c-4-3-7-3-10 1v17h-5v-24h4v3l6-4z"/><path id="O" d="M712 163c4-1 8 0 12 4-2 3-3 3-5 1-9-2-13 1-12 10 1 4 4 6 9 6l6-2c3 1 3 2 1 4-10 4-16 2-21-6-1-9 2-14 10-17z"/><path id="P" d="M830 163c12 1 17 7 13 20-9 8-16 7-22-3-1-8 2-14 9-17z"/><path id="Q" d="M1005 164h5v4l5-4h10l-2 5c-5-2-9-1-12 3-1 5-2 10-1 16h-5v-24z"/><path id="R" d="M432 164h5v18c4 2 7 2 11-1l1-17h4v24h-4l-1-3c-6 5-12 5-16-2v-19z"/><path id="S" d="M111 167c5 0 7 2 5 8-6 3-9 2-8-5l3-3z"/><path id="T" d="M201 168c7 0 10 4 8 12-2 4-6 5-10 3-2-5-2-9-1-13l3-2z"/><path id="U" d="M260 168c3-1 5 0 8 2v11c-4 4-8 3-12-1-1-5 0-9 4-12z"/><path id="V" d="M591 168c7 0 10 4 8 12-2 4-6 5-10 3-2-5-2-9-1-13l3-2zm30 0c7 0 10 4 8 12-2 4-6 5-10 3-2-5-2-9-1-13l3-2z"/><path id="W" d="M830 168c8-1 11 3 9 12-2 3-5 4-9 3-6-5-6-10 0-15z"/><path id="X" d="M1040 168h8l2 6h-13c0-3 1-5 3-6zm60 0h8l2 6h-13c0-3 1-5 3-6z"/><path id="Y" d="M107 189h14c-1 4-3 6-8 6l-6-2c-2-1-2-3 0-4z"/><path id="Z" d="M1185 214c1-1 3 0 5 1v16h-4c-1-6-2-12-1-17z"/><path id="a" d="M671 224c1-1 3 0 4 2 3-3 6-3 10 0 2-2 5-3 9-2l1 3 1 21h-5l-1-19c-1-2-3-2-4 0v19h-4l-1-18c-2-3-3-3-5 0v18h-5v-24z"/><path id="b" d="M709 224c10-3 16 2 16 13h-18c-1 3 1 5 4 6h10c3 1 3 3 0 4-14 3-20-3-19-16 2-3 4-6 7-7zm120 0c10-3 16 2 16 13h-18c-1 3 1 5 4 6h10c3 1 3 3 0 4-14 3-20-3-19-16 2-3 4-6 7-7z"/><path id="c" d="M193 224h15v24h-4v-20h-11v-4z"/><path id="d" d="M431 224c1-1 3 0 5 1l7 18 7-18c1-1 3-2 5-1l-9 23-6 1-9-24z"/><path id="e" d="M260 228h8l2 6h-13c0-3 1-5 3-6z"/><path id="f" d="M620 228h8l2 6h-13c0-3 1-5 3-6zm90 0h8l2 6h-13c0-3 1-5 3-6z"/><path id="g" d="M443 333c4-1 6 1 5 6-6 1-8-1-5-6zm60 0c4-1 6 1 5 6-6 1-8-1-5-6z"/><path id="h" d="M929 333h5v35l-6-2c-8 4-14 2-17-6-1-14 5-18 17-14l1-13z"/></defs></svg>